<svg xmlns="http://www.w3.org/2000/svg" width="59" height="24" viewBox="0 0 59 24"><defs><style>.a{fill:#fff;}</style></defs><g transform="translate(0 -31.028)"><path class="a" d="M58.039,3.5A7.429,7.429,0,0,0,53.072.073a7.006,7.006,0,0,0-4.658.941,4.652,4.652,0,0,0-1.887,3.274,5.125,5.125,0,0,0,1.152,4.2,7.376,7.376,0,0,0,5.384,2.3c2.942.135,3.622.913,3.637,1.184a.336.336,0,0,0,.241.341c.058.257.094.5.13.68-.137.35-.28.7-.44,1.067a14.384,14.384,0,0,1-9.343,8.586c-7.042,2.037-16.757-.6-27.353-7.425-6.4-4.125-11.631-5.61-15.541-4.415A6.877,6.877,0,0,0,.028,14.452a.337.337,0,0,0,.2.441A.358.358,0,0,0,.685,14.7a6.262,6.262,0,0,1,3.922-3.235c3.643-1.114,8.808.384,14.937,4.332C27.92,21.191,35.782,24,42.273,24a18.758,18.758,0,0,0,5.217-.7,15.053,15.053,0,0,0,9.791-8.973C59.287,9.763,59.542,6.118,58.039,3.5Z" transform="translate(-0.003 31.024)"/></g></svg>