<svg xmlns="http://www.w3.org/2000/svg" width="59" height="24" viewBox="0 0 59 24"><defs><style>.a{fill:#fff;}</style></defs><g transform="translate(-4.401 -31.028)"><path class="a" d="M.968,3.5A7.429,7.429,0,0,1,5.935.073a7.006,7.006,0,0,1,4.658.941A4.652,4.652,0,0,1,12.48,4.288a5.125,5.125,0,0,1-1.152,4.2,7.376,7.376,0,0,1-5.384,2.3C3,10.93,2.322,11.709,2.307,11.98a.336.336,0,0,1-.241.341c-.058.257-.094.5-.13.68.137.35.28.7.44,1.067a14.384,14.384,0,0,0,9.343,8.586c7.042,2.037,16.757-.6,27.353-7.425,6.4-4.125,11.631-5.61,15.541-4.415a6.877,6.877,0,0,1,4.367,3.638.337.337,0,0,1-.2.441.358.358,0,0,1-.456-.194A6.262,6.262,0,0,0,54.4,11.463c-3.643-1.114-8.808.384-14.937,4.332C31.087,21.191,23.225,24,16.734,24a18.758,18.758,0,0,1-5.217-.7,15.053,15.053,0,0,1-9.791-8.973C-.28,9.763-.535,6.118.968,3.5Z" transform="translate(4.398 31.024)"/></g></svg>