<svg xmlns="http://www.w3.org/2000/svg" width="14" height="9" viewBox="0 0 14 9"><defs><style>.a{fill:#fff;}</style></defs><path class="a" d="M.072,12.271V4.865q0-.013.041-.244L4.689,8.349.126,12.528a1.044,1.044,0,0,1-.054-.257ZM.68,4.107a.608.608,0,0,1,.23-.039H13.235a.8.8,0,0,1,.243.039L8.888,7.848l-.608.463-1.2.939-1.2-.939L5.27,7.848Zm.014,8.923,4.6-4.2L7.079,10.2,8.861,8.825l4.6,4.2a.677.677,0,0,1-.23.039H.909a.639.639,0,0,1-.216-.039Zm8.775-4.68,4.563-3.729a.734.734,0,0,1,.041.244v7.406a.942.942,0,0,1-.041.257Z" transform="translate(-0.072 -4.068)"/></svg>