<svg xmlns="http://www.w3.org/2000/svg" width="13" height="10" viewBox="0 0 13 10"><defs><style>.a{fill:#fff;}</style></defs><path class="a" d="M15.571,6a5.569,5.569,0,0,1-1.532.4A2.562,2.562,0,0,0,15.211,5a5.526,5.526,0,0,1-1.694.613,2.736,2.736,0,0,0-1.947-.8A2.6,2.6,0,0,0,8.9,7.342a2.4,2.4,0,0,0,.069.575,7.721,7.721,0,0,1-5.5-2.638,2.411,2.411,0,0,0-.361,1.269A2.491,2.491,0,0,0,4.3,8.65a2.771,2.771,0,0,1-1.208-.316c0,.011,0,.021,0,.032a2.565,2.565,0,0,0,2.139,2.475,2.818,2.818,0,0,1-1.2.043,2.656,2.656,0,0,0,2.491,1.753,5.546,5.546,0,0,1-3.312,1.081,5.711,5.711,0,0,1-.636-.035,7.861,7.861,0,0,0,4.088,1.134,7.33,7.33,0,0,0,7.588-7.183q0-.164-.008-.327A5.267,5.267,0,0,0,15.571,6Z" transform="translate(-2.571 -4.817)"/></svg>