<svg xmlns="http://www.w3.org/2000/svg" width="11" height="11" viewBox="0 0 11 11"><defs><style>.a{fill:#fff;}</style></defs><path class="a" d="M1.412.012H9.588A1.416,1.416,0,0,1,11,1.424V9.6a1.415,1.415,0,0,1-1.412,1.411H1.412A1.416,1.416,0,0,1,0,9.6V1.424A1.416,1.416,0,0,1,1.412.012Zm6.6,1.222a.5.5,0,0,0-.5.5V2.915a.5.5,0,0,0,.5.5H9.256a.5.5,0,0,0,.5-.5V1.73a.5.5,0,0,0-.5-.5H8.013Zm1.743,3.43H8.789a3.217,3.217,0,0,1,.142.945A3.368,3.368,0,0,1,5.51,8.921,3.368,3.368,0,0,1,2.091,5.608a3.231,3.231,0,0,1,.142-.945H1.223V9.311a.437.437,0,0,0,.437.436H9.32a.437.437,0,0,0,.437-.436ZM5.51,3.348A2.176,2.176,0,0,0,3.3,5.489,2.176,2.176,0,0,0,5.51,7.629,2.176,2.176,0,0,0,7.72,5.489,2.176,2.176,0,0,0,5.51,3.348Z" transform="translate(0 -0.012)"/></svg>